<?xml version="1.0" encoding="UTF-8"?>
<svg id="Calque_1" data-name="Calque 1" xmlns="http://www.w3.org/2000/svg" viewBox="0 0 370.56 500">
  <defs>
    <style>
      .cls-1 {
        fill: #ff101f;
        stroke-width: 0px;
      }
    </style>
  </defs>
  <path class="cls-1" d="m183.43,500c-32.54,0-64.72-5.92-96.52-17.75-31.8-11.83-60.78-29.09-86.91-51.78l62.87-74.7c18.24,14.79,38.33,26.88,60.28,36.24,21.94,9.37,44.49,14.05,67.68,14.05s40.31-3.94,51.41-11.83c11.09-7.88,16.64-17.99,16.64-30.33,0-11.34-2.96-20.34-8.88-27s-14.55-12.57-25.89-17.75c-11.35-5.18-24.66-10.97-39.94-17.38l-62.13-26.63c-17.75-6.9-34.52-16.15-50.3-27.74-15.79-11.58-28.48-25.89-38.09-42.9s-14.42-37.35-14.42-61.02c0-26.63,7.51-50.67,22.56-72.12,15.04-21.45,35.75-38.7,62.13-51.78C130.29,6.54,160.99,0,196.01,0c29.09,0,57.69,5.43,85.8,16.27,28.11,10.85,53,26.63,74.7,47.34l-55.47,68.79c-16.77-12.32-33.54-21.82-50.3-28.48-16.77-6.66-36.98-9.99-60.65-9.99-17.75,0-32.3,3.7-43.64,11.09-11.35,7.4-17.01,18.25-17.01,32.54,0,9.37,3.44,17.27,10.36,23.67,6.9,6.41,16.27,12.09,28.11,17.01,11.83,4.93,25.39,10.36,40.68,16.27l58.43,25.15c21.69,7.89,40.18,17.64,55.47,29.22,15.28,11.59,27.11,25.77,35.5,42.53,8.38,16.77,12.57,36.5,12.57,59.17,0,26.63-7.28,51.29-21.82,73.96-14.55,22.69-35.76,40.93-63.61,54.73-27.86,13.8-61.76,20.71-101.7,20.71Z"/>
</svg>